<?xml version="1.0" standalone="no"?><!DOCTYPE svg PUBLIC "-//W3C//DTD SVG 1.1//EN" "http://www.w3.org/Graphics/SVG/1.1/DTD/svg11.dtd"><svg t="1725347108325" class="icon" viewBox="0 0 1024 1024" version="1.1" xmlns="http://www.w3.org/2000/svg" p-id="7449" width="256" height="256" xmlns:xlink="http://www.w3.org/1999/xlink"><path d="M320 768H217.6c-3.84 0-6.4-2.56-6.4-6.4s2.56-6.4 6.4-6.4h102.4c3.84 0 6.4 2.56 6.4 6.4s-2.56 6.4-6.4 6.4zM320 729.6H217.6c-3.84 0-6.4-2.56-6.4-6.4s2.56-6.4 6.4-6.4h102.4c3.84 0 6.4 2.56 6.4 6.4s-2.56 6.4-6.4 6.4zM320 691.2H217.6c-3.84 0-6.4-2.56-6.4-6.4s2.56-6.4 6.4-6.4h102.4c3.84 0 6.4 2.56 6.4 6.4s-2.56 6.4-6.4 6.4zM320 652.8H217.6c-3.84 0-6.4-2.56-6.4-6.4s2.56-6.4 6.4-6.4h102.4c3.84 0 6.4 2.56 6.4 6.4s-2.56 6.4-6.4 6.4zM274.56 614.4H217.6c-3.84 0-6.4-2.56-6.4-6.4s2.56-6.4 6.4-6.4h56.96c3.84 0 6.4 2.56 6.4 6.4s-3.2 6.4-6.4 6.4z" fill="#1296db" p-id="7450"></path><path d="M352 641.28V793.6H185.6V569.6h101.76c-1.28-5.76-2.56-8.96-2.56-15.36V544H184.96C171.52 544 160 558.72 160 572.16v225.28c0 14.08 11.52 21.76 24.96 21.76h167.68c14.08 0 24.96-8.32 24.96-21.76v-145.28c-8.96-3.2-17.92-7.04-25.6-10.88zM806.4 768H704c-3.84 0-6.4-2.56-6.4-6.4s2.56-6.4 6.4-6.4h102.4c3.84 0 6.4 2.56 6.4 6.4s-2.56 6.4-6.4 6.4zM806.4 729.6H704c-3.84 0-6.4-2.56-6.4-6.4s2.56-6.4 6.4-6.4h102.4c3.84 0 6.4 2.56 6.4 6.4s-2.56 6.4-6.4 6.4zM806.4 691.2H704c-3.84 0-6.4-2.56-6.4-6.4s2.56-6.4 6.4-6.4h102.4c3.84 0 6.4 2.56 6.4 6.4s-2.56 6.4-6.4 6.4zM806.4 652.8H704c-3.84 0-6.4-2.56-6.4-6.4s2.56-6.4 6.4-6.4h102.4c3.84 0 6.4 2.56 6.4 6.4s-2.56 6.4-6.4 6.4zM760.96 614.4H716.8c-3.84 0-6.4-2.56-6.4-6.4s2.56-6.4 6.4-6.4h44.16c3.84 0 6.4 2.56 6.4 6.4s-3.2 6.4-6.4 6.4z" fill="#1296db" p-id="7451"></path><path d="M800.64 544h-61.44v10.24c0 8.96-1.28 7.68-4.48 15.36h52.48v34.56c0 14.08 11.52 23.04 25.6 23.04h25.6v166.4H672v-151.68c-7.68 3.84-16.64 7.68-25.6 10.88v144.64c0 14.08 11.52 21.76 24.96 21.76h167.68c14.08 0 24.96-8.32 24.96-21.76V616.96L800.64 544zM300.8 217.6H217.6c-3.84 0-6.4-2.56-6.4-6.4s2.56-6.4 6.4-6.4h83.2c3.84 0 6.4 2.56 6.4 6.4s-2.56 6.4-6.4 6.4zM320 179.2H217.6c-3.84 0-6.4-2.56-6.4-6.4s2.56-6.4 6.4-6.4h102.4c3.84 0 6.4 2.56 6.4 6.4s-2.56 6.4-6.4 6.4zM320 140.8H217.6c-3.84 0-6.4-2.56-6.4-6.4s2.56-6.4 6.4-6.4h102.4c3.84 0 6.4 2.56 6.4 6.4s-2.56 6.4-6.4 6.4zM320 102.4H217.6c-3.84 0-6.4-2.56-6.4-6.4s2.56-6.4 6.4-6.4h102.4c3.84 0 6.4 2.56 6.4 6.4s-2.56 6.4-6.4 6.4zM274.56 64H217.6c-3.84 0-6.4-2.56-6.4-6.4s2.56-6.4 6.4-6.4h56.96c3.84 0 6.4 2.56 6.4 6.4s-3.2 6.4-6.4 6.4z" fill="#1296db" p-id="7452"></path><path d="M284.8 262.4h1.28c0.64-6.4 1.92-12.8 3.84-19.2H185.6V25.6h115.2v24.96c0 14.08 11.52 25.6 25.6 25.6h25.6v101.76c7.68-4.48 16.64-8.32 25.6-11.52V63.36L314.24 0H184.96C171.52 0 160 11.52 160 24.96v218.88c0 14.08 11.52 24.96 24.96 24.96h99.84v-6.4zM806.4 217.6H729.6c-3.84 0-6.4-2.56-6.4-6.4s2.56-6.4 6.4-6.4h76.8c3.84 0 6.4 2.56 6.4 6.4s-2.56 6.4-6.4 6.4zM806.4 179.2H704c-3.84 0-6.4-2.56-6.4-6.4s2.56-6.4 6.4-6.4h102.4c3.84 0 6.4 2.56 6.4 6.4s-2.56 6.4-6.4 6.4zM806.4 140.8H704c-3.84 0-6.4-2.56-6.4-6.4s2.56-6.4 6.4-6.4h102.4c3.84 0 6.4 2.56 6.4 6.4s-2.56 6.4-6.4 6.4zM806.4 102.4H704c-3.84 0-6.4-2.56-6.4-6.4s2.56-6.4 6.4-6.4h102.4c3.84 0 6.4 2.56 6.4 6.4s-2.56 6.4-6.4 6.4zM760.96 64H704c-3.84 0-6.4-2.56-6.4-6.4s2.56-6.4 6.4-6.4h56.96c3.84 0 6.4 2.56 6.4 6.4s-3.2 6.4-6.4 6.4z" fill="#1296db" p-id="7453"></path><path d="M800.64 0H671.36C657.92 0 646.4 11.52 646.4 24.96V160c8.96 3.84 17.92 7.68 25.6 11.52V25.6h115.2v24.96c0 14.08 11.52 25.6 25.6 25.6h25.6V243.2H736.64c1.28 3.84 1.92 7.68 1.92 11.52l0.64 1.28v12.8h99.84c14.08 0 24.96-11.52 24.96-24.96V63.36L800.64 0zM512.64 202.24c96.64 0 168.96 38.4 168.96 72.96S609.28 348.16 512.64 348.16c-96.64 0-168.96-38.4-168.96-72.96S416 202.24 512.64 202.24m0-25.6c-107.52 0-194.56 44.16-194.56 98.56s87.04 98.56 194.56 98.56c107.52 0 194.56-44.16 194.56-98.56 0-55.04-87.04-98.56-194.56-98.56z" fill="#1296db" p-id="7454"></path><path d="M342.4 395.52c39.04 23.04 97.92 36.48 170.24 36.48 71.68 0 129.92-13.44 168.96-36.48v15.36c0 32-67.84 66.56-168.96 66.56-101.76 0-170.24-34.56-170.24-66.56v-15.36m364.8-71.04c-6.4 51.2-91.52 82.56-194.56 82.56-103.04 0-188.8-31.36-195.84-82.56v86.4c0 54.4 88.32 92.16 195.84 92.16s194.56-37.76 194.56-92.16V324.48z" fill="#1296db" p-id="7455"></path><path d="M342.4 522.88c39.04 23.04 97.92 36.48 170.24 36.48 71.68 0 129.92-13.44 168.96-36.48v15.36c0 32-67.84 66.56-168.96 66.56-101.76 0-170.24-34.56-170.24-66.56v-15.36m364.8-71.04c-6.4 51.2-91.52 82.56-194.56 82.56-103.04 0-188.8-31.36-195.84-82.56v86.4c0 54.4 88.32 92.16 195.84 92.16s194.56-37.76 194.56-92.16V451.84z" fill="#1296db" p-id="7456"></path></svg>